<svg width="14" height="8" viewBox="0 0 14 8" fill="none" xmlns="http://www.w3.org/2000/svg">
<path d="M7.43307 1.06305L7.43307 1.06305L7.43388 1.06377L12.8847 5.9699C12.8847 5.96993 12.8847 5.96996 12.8848 5.96998C13.1505 6.20848 13.1731 6.61761 12.9362 6.88359L12.9359 6.88384C12.6975 7.14972 12.2883 7.17234 12.0223 6.93534L12.0222 6.93547L12.0181 6.93139L12.0172 6.9305L7.0004 2.41336L1.98195 6.93196C1.98189 6.93202 1.98183 6.93207 1.98177 6.93212C1.71745 7.17212 1.30811 7.15281 1.06792 6.88693C0.828451 6.62321 0.847085 6.2151 1.11118 5.97465L1.1122 5.97363L1.11211 5.97353L1.11602 5.97001L6.56693 1.06377L6.56739 1.06336C6.6975 0.947697 6.86983 0.887747 7.04605 0.902092C7.18874 0.91188 7.32522 0.968071 7.43307 1.06305Z" fill="white" stroke="white" stroke-width="0.2"/>
</svg>
