<svg width="106" height="19" viewBox="0 0 106 19" fill="none" xmlns="http://www.w3.org/2000/svg">
<path d="M6.30002 5.8499L1.35002 6.7499L0.900024 7.6499L4.50002 11.6999L3.60002 16.6499L4.50002 17.5499L9.00002 14.8499L13.5 17.0999L14.4 16.6499L13.95 11.2499L17.1 7.1999L16.65 6.2999L11.7 5.3999L9.45002 0.899902H8.55002L6.30002 5.8499Z" fill="#ccc"/>
<path d="M17.5667 8.50924C17.9762 8.07448 18.1055 7.48756 17.9115 6.96586C17.7176 6.42241 17.265 6.03114 16.7046 5.94418L12.4375 5.27032C12.3512 5.24858 12.3081 5.2051 12.265 5.13989L10.3901 1.11841C10.1315 0.574967 9.61422 0.248901 9.01078 0.248901C8.40734 0.248901 7.8901 0.574967 7.63148 1.11841L5.73496 5.18336C5.71341 5.24858 5.6272 5.27032 5.5841 5.27032L1.29536 5.94418C0.735026 6.03114 0.282446 6.42241 0.0884835 6.96586C-0.105479 7.48756 0.0238291 8.07448 0.433306 8.50924L3.57981 11.7482C3.64447 11.8351 3.66602 11.9003 3.64447 11.9655L2.91172 16.487C2.84707 17.0739 3.08413 17.6173 3.55826 17.9651C3.81688 18.1608 4.1186 18.2477 4.44187 18.2477C4.70049 18.2477 4.93756 18.1825 5.17462 18.0521L8.90302 15.987C8.98922 15.9435 9.05388 15.9435 9.11853 15.987L12.8469 18.0521C13.3211 18.3347 13.9461 18.3129 14.4417 17.9869C14.9374 17.6608 15.1745 17.0739 15.0883 16.5087L14.3555 11.9438C14.334 11.9003 14.334 11.8134 14.3986 11.7699L17.5667 8.50924ZM4.95911 12.1612C5.02376 11.6829 4.8729 11.2047 4.54963 10.8352L1.38157 7.59625C1.27381 7.48756 1.31691 7.37888 1.33847 7.37888C1.36002 7.31366 1.40312 7.24845 1.51088 7.24845L5.79961 6.57458C6.29529 6.48763 6.72632 6.16156 6.94184 5.70507L8.81681 1.68359C8.88147 1.55316 9.01078 1.55316 9.01078 1.55316C9.01078 1.55316 9.14008 1.55316 9.20474 1.68359L11.0797 5.70507C11.3168 6.20504 11.7263 6.50937 12.2219 6.57458L16.5107 7.22671C16.6184 7.24845 16.6615 7.31366 16.6831 7.37888C16.6831 7.37888 16.7262 7.48756 16.6184 7.59625L13.4719 10.8134C13.1271 11.1612 12.9762 11.6177 13.0624 12.1394L13.7952 16.6826C13.8167 16.8348 13.7305 16.8783 13.7305 16.8783L13.6874 16.9C13.6659 16.9217 13.6012 16.9652 13.4935 16.9L9.76508 14.8349C9.54956 14.7045 9.29094 14.6393 9.03233 14.6393C8.75216 14.6393 8.49354 14.7262 8.29958 14.8567L4.57118 16.9217C4.48497 16.9652 4.42032 16.9435 4.33412 16.9C4.33412 16.9 4.24791 16.8348 4.26946 16.7044L4.95911 12.1612Z" fill="#ccc"/>
<path d="M28.3 5.601L23.35 6.501L22.9 7.401L26.5 11.451L25.6 16.401L26.5 17.301L31 14.601L35.5 16.851L36.4 16.401L35.95 11.001L39.1 6.951L38.65 6.051L33.7 5.151L31.45 0.651001H30.55L28.3 5.601Z" fill="#ccc"/>
<path d="M39.5667 8.26033C39.9762 7.82558 40.1055 7.23866 39.9115 6.71696C39.7176 6.17351 39.265 5.78223 38.7046 5.69528L34.4375 5.02141C34.3512 4.99968 34.3081 4.9562 34.265 4.89099L32.3901 0.869509C32.1315 0.326066 31.6142 0 31.0108 0C30.4073 0 29.8901 0.326066 29.6315 0.869509L27.735 4.93446C27.7134 4.99968 27.6272 5.02141 27.5841 5.02141L23.2954 5.69528C22.735 5.78223 22.2824 6.17351 22.0885 6.71696C21.8945 7.23866 22.0238 7.82558 22.4333 8.26033L25.5798 11.4993C25.6445 11.5862 25.666 11.6514 25.6445 11.7166L24.9117 16.2381C24.8471 16.825 25.0841 17.3684 25.5583 17.7162C25.8169 17.9119 26.1186 17.9988 26.4419 17.9988C26.7005 17.9988 26.9376 17.9336 27.1746 17.8032L30.903 15.7381C30.9892 15.6946 31.0539 15.6946 31.1185 15.7381L34.8469 17.8032C35.3211 18.0858 35.9461 18.064 36.4417 17.738C36.9374 17.4119 37.1745 16.825 37.0883 16.2598L36.3555 11.6949C36.334 11.6514 36.334 11.5645 36.3986 11.521L39.5667 8.26033ZM26.9591 11.9123C27.0238 11.434 26.8729 10.9558 26.5496 10.5863L23.3816 7.34735C23.2738 7.23866 23.3169 7.12997 23.3385 7.12997C23.36 7.06476 23.4031 6.99955 23.5109 6.99955L27.7996 6.32568C28.2953 6.23873 28.7263 5.91266 28.9418 5.45617L30.8168 1.43469C30.8815 1.30426 31.0108 1.30426 31.0108 1.30426C31.0108 1.30426 31.1401 1.30426 31.2047 1.43469L33.0797 5.45617C33.3168 5.95614 33.7263 6.26046 34.2219 6.32568L38.5107 6.97781C38.6184 6.99955 38.6615 7.06476 38.6831 7.12997C38.6831 7.12997 38.7262 7.23866 38.6184 7.34735L35.4719 10.5645C35.1271 10.9123 34.9762 11.3688 35.0624 11.8905L35.7952 16.4337C35.8167 16.5859 35.7305 16.6294 35.7305 16.6294L35.6874 16.6511C35.6659 16.6728 35.6012 16.7163 35.4935 16.6511L31.7651 14.586C31.5496 14.4556 31.2909 14.3904 31.0323 14.3904C30.7522 14.3904 30.4935 14.4773 30.2996 14.6078L26.5712 16.6728C26.485 16.7163 26.4203 16.6946 26.3341 16.6511C26.3341 16.6511 26.2479 16.5859 26.2695 16.4555L26.9591 11.9123Z" fill="#ccc"/>
<path d="M50.3 5.601L45.35 6.501L44.9 7.401L48.5 11.451L47.6 16.401L48.5 17.301L53 14.601L57.5 16.851L58.4 16.401L57.95 11.001L61.1 6.951L60.65 6.051L55.7 5.151L53.45 0.651001H52.55L50.3 5.601Z" fill="#ccc"/>
<path d="M61.5667 8.26033C61.9762 7.82558 62.1055 7.23866 61.9115 6.71696C61.7176 6.17351 61.265 5.78223 60.7046 5.69528L56.4375 5.02141C56.3512 4.99968 56.3081 4.9562 56.265 4.89099L54.3901 0.869509C54.1315 0.326066 53.6142 0 53.0108 0C52.4073 0 51.8901 0.326066 51.6315 0.869509L49.735 4.93446C49.7134 4.99968 49.6272 5.02141 49.5841 5.02141L45.2954 5.69528C44.735 5.78223 44.2824 6.17351 44.0885 6.71696C43.8945 7.23866 44.0238 7.82558 44.4333 8.26033L47.5798 11.4993C47.6445 11.5862 47.666 11.6514 47.6445 11.7166L46.9117 16.2381C46.8471 16.825 47.0841 17.3684 47.5583 17.7162C47.8169 17.9119 48.1186 17.9988 48.4419 17.9988C48.7005 17.9988 48.9376 17.9336 49.1746 17.8032L52.903 15.7381C52.9892 15.6946 53.0539 15.6946 53.1185 15.7381L56.8469 17.8032C57.3211 18.0858 57.9461 18.064 58.4417 17.738C58.9374 17.4119 59.1745 16.825 59.0883 16.2598L58.3555 11.6949C58.334 11.6514 58.334 11.5645 58.3986 11.521L61.5667 8.26033ZM48.9591 11.9123C49.0238 11.434 48.8729 10.9558 48.5496 10.5863L45.3816 7.34735C45.2738 7.23866 45.3169 7.12997 45.3385 7.12997C45.36 7.06476 45.4031 6.99955 45.5109 6.99955L49.7996 6.32568C50.2953 6.23873 50.7263 5.91266 50.9418 5.45617L52.8168 1.43469C52.8815 1.30426 53.0108 1.30426 53.0108 1.30426C53.0108 1.30426 53.1401 1.30426 53.2047 1.43469L55.0797 5.45617C55.3168 5.95614 55.7263 6.26046 56.2219 6.32568L60.5107 6.97781C60.6184 6.99955 60.6615 7.06476 60.6831 7.12997C60.6831 7.12997 60.7262 7.23866 60.6184 7.34735L57.4719 10.5645C57.1271 10.9123 56.9762 11.3688 57.0624 11.8905L57.7952 16.4337C57.8167 16.5859 57.7305 16.6294 57.7305 16.6294L57.6874 16.6511C57.6659 16.6728 57.6012 16.7163 57.4935 16.6511L53.7651 14.586C53.5496 14.4556 53.2909 14.3904 53.0323 14.3904C52.7522 14.3904 52.4935 14.4773 52.2996 14.6078L48.5712 16.6728C48.485 16.7163 48.4203 16.6946 48.3341 16.6511C48.3341 16.6511 48.2479 16.5859 48.2695 16.4555L48.9591 11.9123Z" fill="#ccc"/>
<path d="M72.3 5.601L67.35 6.501L66.9 7.401L70.5 11.451L69.6 16.401L70.5 17.301L75 14.601L79.5 16.851L80.4 16.401L79.95 11.001L83.1 6.951L82.65 6.051L77.7 5.151L75.45 0.651001H74.55L72.3 5.601Z" fill="#ccc"/>
<path d="M83.5667 8.26033C83.9762 7.82558 84.1055 7.23866 83.9115 6.71696C83.7176 6.17351 83.265 5.78223 82.7046 5.69528L78.4375 5.02141C78.3512 4.99968 78.3081 4.9562 78.265 4.89099L76.3901 0.869509C76.1315 0.326066 75.6142 0 75.0108 0C74.4073 0 73.8901 0.326066 73.6315 0.869509L71.735 4.93446C71.7134 4.99968 71.6272 5.02141 71.5841 5.02141L67.2954 5.69528C66.735 5.78223 66.2824 6.17351 66.0885 6.71696C65.8945 7.23866 66.0238 7.82558 66.4333 8.26033L69.5798 11.4993C69.6445 11.5862 69.666 11.6514 69.6445 11.7166L68.9117 16.2381C68.8471 16.825 69.0841 17.3684 69.5583 17.7162C69.8169 17.9119 70.1186 17.9988 70.4419 17.9988C70.7005 17.9988 70.9376 17.9336 71.1746 17.8032L74.903 15.7381C74.9892 15.6946 75.0539 15.6946 75.1185 15.7381L78.8469 17.8032C79.3211 18.0858 79.9461 18.064 80.4417 17.738C80.9374 17.4119 81.1745 16.825 81.0883 16.2598L80.3555 11.6949C80.334 11.6514 80.334 11.5645 80.3986 11.521L83.5667 8.26033ZM70.9591 11.9123C71.0238 11.434 70.8729 10.9558 70.5496 10.5863L67.3816 7.34735C67.2738 7.23866 67.3169 7.12997 67.3385 7.12997C67.36 7.06476 67.4031 6.99955 67.5109 6.99955L71.7996 6.32568C72.2953 6.23873 72.7263 5.91266 72.9418 5.45617L74.8168 1.43469C74.8815 1.30426 75.0108 1.30426 75.0108 1.30426C75.0108 1.30426 75.1401 1.30426 75.2047 1.43469L77.0797 5.45617C77.3168 5.95614 77.7263 6.26046 78.2219 6.32568L82.5107 6.97781C82.6184 6.99955 82.6615 7.06476 82.6831 7.12997C82.6831 7.12997 82.7262 7.23866 82.6184 7.34735L79.4719 10.5645C79.1271 10.9123 78.9762 11.3688 79.0624 11.8905L79.7952 16.4337C79.8167 16.5859 79.7305 16.6294 79.7305 16.6294L79.6874 16.6511C79.6659 16.6728 79.6012 16.7163 79.4935 16.6511L75.7651 14.586C75.5496 14.4556 75.2909 14.3904 75.0323 14.3904C74.7522 14.3904 74.4935 14.4773 74.2996 14.6078L70.5712 16.6728C70.485 16.7163 70.4203 16.6946 70.3341 16.6511C70.3341 16.6511 70.2479 16.5859 70.2695 16.4555L70.9591 11.9123Z" fill="#ccc"/>
<path d="M94.3 5.601L89.35 6.501L88.9 7.401L92.5 11.451L91.6 16.401L92.5 17.301L97 14.601L101.5 16.851L102.4 16.401L101.95 11.001L105.1 6.951L104.65 6.051L99.7 5.151L97.45 0.651001H96.55L94.3 5.601Z" fill="#ccc"/>
<path d="M105.567 8.26033C105.976 7.82558 106.105 7.23866 105.912 6.71696C105.718 6.17351 105.265 5.78223 104.705 5.69528L100.437 5.02141C100.351 4.99968 100.308 4.9562 100.265 4.89099L98.3901 0.869509C98.1315 0.326066 97.6142 0 97.0108 0C96.4073 0 95.8901 0.326066 95.6315 0.869509L93.735 4.93446C93.7134 4.99968 93.6272 5.02141 93.5841 5.02141L89.2954 5.69528C88.735 5.78223 88.2824 6.17351 88.0885 6.71696C87.8945 7.23866 88.0238 7.82558 88.4333 8.26033L91.5798 11.4993C91.6445 11.5862 91.666 11.6514 91.6445 11.7166L90.9117 16.2381C90.8471 16.825 91.0841 17.3684 91.5583 17.7162C91.8169 17.9119 92.1186 17.9988 92.4419 17.9988C92.7005 17.9988 92.9376 17.9336 93.1746 17.8032L96.903 15.7381C96.9892 15.6946 97.0539 15.6946 97.1185 15.7381L100.847 17.8032C101.321 18.0858 101.946 18.064 102.442 17.738C102.937 17.4119 103.174 16.825 103.088 16.2598L102.356 11.6949C102.334 11.6514 102.334 11.5645 102.399 11.521L105.567 8.26033ZM92.9591 11.9123C93.0238 11.434 92.8729 10.9558 92.5496 10.5863L89.3816 7.34735C89.2738 7.23866 89.3169 7.12997 89.3385 7.12997C89.36 7.06476 89.4031 6.99955 89.5109 6.99955L93.7996 6.32568C94.2953 6.23873 94.7263 5.91266 94.9418 5.45617L96.8168 1.43469C96.8815 1.30426 97.0108 1.30426 97.0108 1.30426C97.0108 1.30426 97.1401 1.30426 97.2047 1.43469L99.0797 5.45617C99.3168 5.95614 99.7263 6.26046 100.222 6.32568L104.511 6.97781C104.618 6.99955 104.662 7.06476 104.683 7.12997C104.683 7.12997 104.726 7.23866 104.618 7.34735L101.472 10.5645C101.127 10.9123 100.976 11.3688 101.062 11.8905L101.795 16.4337C101.817 16.5859 101.731 16.6294 101.731 16.6294L101.687 16.6511C101.666 16.6728 101.601 16.7163 101.493 16.6511L97.7651 14.586C97.5496 14.4556 97.2909 14.3904 97.0323 14.3904C96.7522 14.3904 96.4935 14.4773 96.2996 14.6078L92.5712 16.6728C92.485 16.7163 92.4203 16.6946 92.3341 16.6511C92.3341 16.6511 92.2479 16.5859 92.2695 16.4555L92.9591 11.9123Z" fill="#ccc"/>
</svg>
