<svg width="27" height="25" viewBox="0 0 27 25" fill="none" xmlns="http://www.w3.org/2000/svg">
<path d="M19.7207 0.890927C18.1351 -0.450428 15.791 -0.203337 14.3433 1.27921L13.5505 2.12639L12.5853 1.17332C10.9652 -0.485727 8.27644 -0.379831 6.7942 1.45571C5.48432 3.07945 5.72561 5.47977 7.17338 6.96232L12.7576 12.6807C13.2057 13.1396 13.8952 13.1396 14.3088 12.6807L19.9965 6.82113C21.6166 5.16208 21.5477 2.44408 19.7207 0.890927Z" fill="#1F2236"/>
<path d="M24.3397 8.40955C24.1674 9.00963 23.7882 9.8921 23.3401 10.8805C23.5814 11.5511 23.5814 12.3983 23.0988 13.3514C22.9954 13.5632 22.823 13.8103 22.6506 14.0574C22.237 14.6574 21.651 15.2928 20.9961 16.0341C20.9616 16.0694 20.8926 16.14 20.8582 16.1753C20.7203 16.3518 20.4445 16.3871 20.2377 16.2812C19.9964 16.1047 19.9619 15.787 20.1343 15.5752C20.1688 15.5046 20.2377 15.4693 20.2722 15.3987C21.0995 14.481 21.8923 13.5985 22.2025 12.9278C22.823 11.6923 22.4094 10.8805 21.8234 10.4922C21.3408 10.2098 20.6513 10.2098 20.3066 10.7746C19.7896 11.5864 19.0312 12.4336 18.3418 13.2455C17.5145 14.1986 16.7217 15.1869 16.2391 15.9988C15.722 16.8813 15.0671 18.9992 14.9292 21.223C14.8603 22.3173 14.8258 23.5527 14.8258 24.294C14.8258 24.6823 15.1016 25 15.4807 25H19.7551C20.1343 25 20.4101 24.6823 20.4101 24.3293V23.0939C20.4101 22.8115 20.5479 22.5291 20.7892 22.3526C22.3059 21.2936 23.7192 19.9876 24.5465 19.0345C26.2701 16.9519 26.925 10.8099 26.994 8.97433C27.1318 7.13879 24.8568 6.71521 24.3397 8.40955Z" fill="#1F2236"/>
<path d="M10.7927 16.0341C10.3101 15.2222 9.51732 14.2339 8.69003 13.2808C7.96614 12.4689 7.24226 11.6218 6.7252 10.8099C6.34602 10.2451 5.69108 10.2451 5.20849 10.5275C4.62249 10.8805 4.20884 11.6924 4.82931 12.9631C5.17402 13.6338 5.93237 14.5163 6.75967 15.434C6.79414 15.5046 6.86308 15.5399 6.89755 15.6105C7.10437 15.8223 7.03543 16.1753 6.79414 16.3165C6.58731 16.4577 6.34602 16.3871 6.17367 16.2106C6.13919 16.1753 6.07025 16.1047 6.03578 16.0694C5.38084 15.3634 4.82931 14.6928 4.38119 14.0927C4.20884 13.8456 4.07095 13.5985 3.93307 13.3867C3.45048 12.4336 3.45048 11.5865 3.69178 10.9158C3.24366 9.96272 2.86448 9.04495 2.69213 8.44487C2.17507 6.75052 -0.0999961 7.17411 0.00341588 8.97435C0.106828 10.8099 0.7273 16.9519 2.45083 19.0345C3.24366 19.9876 4.69143 21.2583 6.20814 22.3526C6.44943 22.5291 6.58731 22.8115 6.58731 23.0939V24.3293C6.58731 24.7176 6.89755 25 7.24226 25H11.5166C11.8958 25 12.1716 24.6823 12.1716 24.294C12.1371 23.5528 12.1026 22.3173 12.0682 21.223C11.9992 18.9992 11.3098 16.9166 10.7927 16.0341Z" fill="#1F2236"/>
</svg>
