<svg width="23" height="23" viewBox="0 0 23 23" fill="none" xmlns="http://www.w3.org/2000/svg">
<path d="M11.5 0C9.22552 0 7.00211 0.674463 5.11095 1.9381C3.21978 3.20174 1.7458 4.99779 0.87539 7.09914C0.00498276 9.20049 -0.222756 11.5128 0.220974 13.7435C0.664704 15.9743 1.75997 18.0234 3.36828 19.6317C4.97658 21.24 7.02568 22.3353 9.25646 22.779C11.4872 23.2228 13.7995 22.995 15.9009 22.1246C18.0022 21.2542 19.7983 19.7802 21.0619 17.8891C22.3255 15.9979 23 13.7745 23 11.5C23 8.45001 21.7884 5.52494 19.6317 3.36827C17.4751 1.2116 14.55 0 11.5 0ZM18.6546 7.97607L10.4404 16.1904C10.3636 16.2665 10.2726 16.3267 10.1725 16.3676C10.0724 16.4085 9.96525 16.4292 9.85715 16.4286C9.67186 16.4275 9.49238 16.3638 9.34786 16.2479L5.24072 12.9621C5.14599 12.8992 5.06537 12.8172 5.00397 12.7215C4.94257 12.6257 4.90172 12.5183 4.88402 12.4059C4.86632 12.2935 4.87214 12.1787 4.90113 12.0687C4.93012 11.9587 4.98163 11.856 5.05241 11.7669C5.12319 11.6779 5.21169 11.6045 5.3123 11.5515C5.41292 11.4984 5.52345 11.4668 5.63691 11.4587C5.75037 11.4506 5.86427 11.4662 5.97141 11.5044C6.07854 11.5426 6.17657 11.6026 6.25929 11.6807L9.79965 14.5064L17.4882 6.80964C17.5648 6.73305 17.6557 6.6723 17.7558 6.63085C17.8559 6.5894 17.9631 6.56807 18.0714 6.56807C18.1797 6.56807 18.287 6.5894 18.3871 6.63085C18.4871 6.6723 18.5781 6.73305 18.6546 6.80964C18.7312 6.88623 18.792 6.97715 18.8334 7.07722C18.8749 7.17729 18.8962 7.28454 18.8962 7.39286C18.8962 7.50117 18.8749 7.60842 18.8334 7.70849C18.792 7.80856 18.7312 7.89948 18.6546 7.97607Z" fill="#1F2236"/>
</svg>
