<svg width="14" height="14" viewBox="0 0 14 14" fill="none" xmlns="http://www.w3.org/2000/svg">
<g clip-path="url(#clip0)">
<path d="M13.8093 6.53967L9.64317 2.3735C9.38899 2.11931 8.97674 2.11931 8.72255 2.3735C8.46831 2.62774 8.46831 3.03988 8.72255 3.29412L11.7775 6.34902H0.650964C0.291476 6.34902 0 6.64049 0 6.99998C0 7.35942 0.291476 7.65095 0.650964 7.65095H11.7775L8.72266 10.7058C8.46842 10.9601 8.46842 11.3722 8.72266 11.6265C8.84973 11.7535 9.01637 11.8171 9.18297 11.8171C9.34956 11.8171 9.51616 11.7535 9.64328 11.6265L13.8093 7.46029C14.0636 7.20605 14.0636 6.79391 13.8093 6.53967Z" fill="#1F2236"/>
</g>
<defs>
<clipPath id="clip0">
<rect width="14" height="14" fill="white"/>
</clipPath>
</defs>
</svg>
