<svg width="21" height="25" viewBox="0 0 21 25" fill="none" xmlns="http://www.w3.org/2000/svg">
<path d="M11.0628 13.9646C11.0621 13.8604 11.0323 13.7583 10.9764 13.6695C10.9206 13.5806 10.841 13.5085 10.7461 13.4609C10.6513 13.4133 10.545 13.392 10.4387 13.3994C10.3324 13.4068 10.2302 13.4426 10.1432 13.5028C10.0562 13.5631 9.98779 13.6455 9.94537 13.7412C9.90295 13.8368 9.88815 13.942 9.90259 14.0454C9.91702 14.1487 9.96013 14.2461 10.0272 14.3271C10.0943 14.4081 10.1829 14.4696 10.2832 14.5048L9.93044 15.5051H11.0296L10.6768 14.5048C10.7906 14.4653 10.8889 14.392 10.9581 14.2951C11.0273 14.1983 11.0639 14.0828 11.0628 13.9646Z" fill="#1F2236"/>
<path d="M10.5056 8.93652C10.0807 8.93717 9.67333 9.10208 9.37218 9.39532C9.07103 9.68855 8.90052 10.0863 8.89783 10.502V12.5027H12.1134V10.502C12.1107 10.0863 11.9402 9.68855 11.6391 9.39532C11.3379 9.10208 10.9305 8.93717 10.5056 8.93652Z" fill="#1F2236"/>
<path d="M20.7301 4.39758C17.4037 2.96545 14.0808 1.51832 10.7612 0.0561782C10.6863 0.0192407 10.6036 0 10.5197 0C10.4358 0 10.3531 0.0192407 10.2781 0.0561782C6.93646 1.50998 3.59648 2.95962 0.258203 4.40509C0.177113 4.42621 0.106569 4.47531 0.0595885 4.54334C0.0126086 4.61136 -0.00763546 4.69372 0.00259287 4.77521C0.0255978 7.00093 3.67996e-05 9.22915 0.0255979 11.4549C0.0404334 14.5214 1.06195 17.5021 2.93956 19.9576C4.75439 22.3484 7.07534 24.0615 10.0174 24.9267C10.3344 25.0244 10.6743 25.0244 10.9913 24.9267C13.7043 24.1325 16.089 22.5149 17.8008 20.3077C19.8823 17.7501 21.0094 14.5742 20.9959 11.3048C20.9959 10.342 20.9959 9.3817 20.9959 8.41889C20.9959 7.216 20.9959 6.01311 20.9959 4.81272C21.0092 4.7239 20.9898 4.63333 20.9411 4.55726C20.8924 4.48118 20.8176 4.42457 20.7301 4.39758ZM14.1609 16.7841C14.1602 16.8595 14.1293 16.9316 14.0748 16.985C14.0203 17.0383 13.9465 17.0685 13.8695 17.0692H7.14435C7.06727 17.0685 6.99354 17.0383 6.93904 16.985C6.88454 16.9316 6.85362 16.8595 6.85296 16.7841V12.7828C6.85494 12.7083 6.88644 12.6374 6.9408 12.5851C6.99516 12.5329 7.06814 12.5033 7.14435 12.5027H7.8754V10.5021C7.8754 9.81957 8.15251 9.16503 8.64577 8.68244C9.13904 8.19985 9.80805 7.92873 10.5056 7.92873C11.2032 7.92873 11.8722 8.19985 12.3655 8.68244C12.8588 9.16503 13.1359 9.81957 13.1359 10.5021V12.5027H13.8669C13.944 12.5034 14.0177 12.5336 14.0722 12.5869C14.1267 12.6403 14.1576 12.7124 14.1583 12.7878V16.7891L14.1609 16.7841Z" fill="#1F2236"/>
</svg>
