<?xml version="1.0" encoding="utf-8"?>
<!-- Generator: Adobe Illustrator 21.1.0, SVG Export Plug-In . SVG Version: 6.00 Build 0)  -->
<svg version="1.1" id="Слой_1" xmlns="http://www.w3.org/2000/svg" xmlns:xlink="http://www.w3.org/1999/xlink" x="0px" y="0px"
	 viewBox="0 0 70 13" style="enable-background:new 0 0 70 13;" xml:space="preserve">
<style type="text/css">
	.st0{fill:#37cc66;}
</style>
<path class="st0" d="M7,0l2.3,4.1L14,5l-3.3,3.4l0.6,4.6L7,11l-4.3,2l0.6-4.6L0,5l4.7-0.9L7,0 M21,0l2.3,4.1L28,5l-3.3,3.4l0.6,4.6
	L21,11l-4.3,2l0.6-4.6L14,5l4.7-0.9L21,0 M35,0l2.3,4.1L42,5l-3.3,3.4l0.6,4.6L35,11l-4.3,2l0.6-4.6L28,5l4.7-0.9L35,0 M49,0
	l2.3,4.1L56,5l-3.3,3.4l0.6,4.6L49,11l-4.3,2l0.6-4.6L42,5l4.7-0.9L49,0 M63,0l2.3,4.1L70,5l-3.3,3.4l0.6,4.6L63,11l-4.3,2l0.6-4.6
	L56,5l4.7-0.9L63,0"/>
</svg>
